<svg data-v-423bf9ae="" xmlns="http://www.w3.org/2000/svg" viewBox="0 0 464.82562175501215 60" class="font"><!----><!----><!----><g data-v-423bf9ae="" id="dea9603b-40e1-4aa9-a8f2-15e556ba1d47" fill="black" transform="matrix(5.813953660298242,0,0,5.813953660298242,-4.883720986130669,-14.069768301491209)"><path d="M2.89 12.67L0.84 12.67L0.84 2.42L1.52 2.42L7.95 8.85L7.95 2.42L10.00 2.42L10.00 12.67L9.25 12.67L2.89 6.32L2.89 12.67ZM11.61 9.26L11.61 9.26L11.61 9.26Q11.61 7.75 12.56 6.79L12.56 6.79L12.56 6.79Q13.52 5.84 15.03 5.84L15.03 5.84L15.03 5.84Q16.53 5.84 17.42 6.79L17.42 6.79L17.42 6.79Q18.31 7.75 18.31 9.26L18.31 9.26L18.31 9.94L13.59 9.94L13.59 9.94Q13.66 10.49 14.07 10.79L14.07 10.79L14.07 10.79Q14.48 11.10 15.03 11.10L15.03 11.10L15.03 11.10Q15.98 11.10 16.73 10.55L16.73 10.55L17.83 11.65L17.83 11.65Q17.08 12.67 15.03 12.67L15.03 12.67L15.03 12.67Q13.52 12.67 12.56 11.72L12.56 11.72L12.56 11.72Q11.61 10.76 11.61 9.26ZM16.39 8.57L16.39 8.57Q16.39 8.03 15.98 7.72L15.98 7.72L15.98 7.72Q15.57 7.41 15.03 7.41L15.03 7.41L15.03 7.41Q14.48 7.41 14.07 7.72L14.07 7.72L14.07 7.72Q13.66 8.03 13.66 8.57L13.66 8.57L16.39 8.57ZM23.86 9.25L24.89 12.67L26.60 12.67L28.42 5.83L26.63 5.83L25.57 9.94L24.60 5.83L23.18 5.83L22.16 9.87L21.10 5.83L19.30 5.83L21.13 12.67L22.84 12.67L23.86 9.25ZM32.16 5.80L32.16 5.80Q33.12 5.80 33.65 6.03L33.65 6.03L33.65 6.03Q34.19 6.26 34.65 6.72L34.65 6.72L33.58 7.92L33.58 7.92Q33.12 7.37 32.42 7.37L32.42 7.37L32.42 7.37Q31.73 7.37 31.50 7.63L31.50 7.63L31.50 7.63Q31.27 7.88 31.50 8.09L31.50 8.09L31.50 8.09Q31.73 8.30 32.42 8.44L32.42 8.44L32.42 8.44Q33.44 8.53 34.09 9.02L34.09 9.02L34.09 9.02Q34.74 9.50 34.74 10.71L34.74 10.71L34.74 10.71Q34.74 11.68 33.97 12.21L33.97 12.21L33.97 12.21Q33.21 12.74 32.19 12.74L32.19 12.74L32.19 12.74Q31.22 12.74 30.57 12.47L30.57 12.47L30.57 12.47Q29.93 12.19 29.46 11.72L29.46 11.72L30.52 10.53L30.52 10.53Q30.99 11.08 31.96 11.17L31.96 11.17L31.96 11.17Q32.75 11.17 32.98 10.91L32.98 10.91L32.98 10.91Q33.21 10.66 33.05 10.40L33.05 10.40L33.05 10.40Q32.89 10.14 31.96 10.06L31.96 10.06L31.96 10.06Q31.13 9.96 30.44 9.54L30.44 9.54L30.44 9.54Q29.74 9.13 29.74 7.97L29.74 7.97L29.74 7.97Q29.74 6.91 30.53 6.35L30.53 6.35L30.53 6.35Q31.32 5.80 32.16 5.80L32.16 5.80ZM43.12 12.67L41.07 12.67L41.07 2.42L48.28 2.42L48.28 4.33L43.12 4.33L43.12 6.52L46.93 6.52L46.93 8.43L43.12 8.43L43.12 12.67ZM51.38 5.83L51.38 6.59L51.38 6.59Q52.11 5.84 53.16 5.84L53.16 5.84L53.16 5.84Q53.50 5.84 53.80 5.89L53.80 5.89L53.50 7.78L53.50 7.78Q53.16 7.48 52.54 7.46L52.54 7.46L52.54 7.46Q51.84 7.51 51.38 8.47L51.38 8.47L51.38 12.67L49.46 12.67L49.46 6.04L51.38 5.83ZM56.97 12.67L55.06 12.67L55.06 5.83L56.97 5.83L56.97 12.67ZM54.99 4.20L54.99 4.20L54.99 4.20Q54.99 4.61 55.26 4.88L55.26 4.88L55.26 4.88Q55.54 5.15 56.01 5.15L56.01 5.15L56.01 5.15Q56.49 5.15 56.77 4.88L56.77 4.88L56.77 4.88Q57.04 4.61 57.04 4.20L57.04 4.20L57.04 4.20Q57.04 3.79 56.77 3.51L56.77 3.51L56.77 3.51Q56.49 3.23 56 3.23L56 3.23L56 3.23Q55.54 3.23 55.26 3.51L55.26 3.51L55.26 3.51Q54.99 3.79 54.99 4.20ZM58.28 9.26L58.28 9.26L58.28 9.26Q58.28 7.75 59.23 6.79L59.23 6.79L59.23 6.79Q60.19 5.84 61.69 5.84L61.69 5.84L61.69 5.84Q63.20 5.84 64.09 6.79L64.09 6.79L64.09 6.79Q64.98 7.75 64.98 9.26L64.98 9.26L64.98 9.94L60.26 9.94L60.26 9.94Q60.33 10.49 60.74 10.79L60.74 10.79L60.74 10.79Q61.15 11.10 61.69 11.10L61.69 11.10L61.69 11.10Q62.65 11.10 63.40 10.55L63.40 10.55L64.50 11.65L64.50 11.65Q63.75 12.67 61.69 12.67L61.69 12.67L61.69 12.67Q60.19 12.67 59.23 11.72L59.23 11.72L59.23 11.72Q58.28 10.76 58.28 9.26ZM63.06 8.57L63.06 8.57Q63.06 8.03 62.65 7.72L62.65 7.72L62.65 7.72Q62.24 7.41 61.69 7.41L61.69 7.41L61.69 7.41Q61.15 7.41 60.74 7.72L60.74 7.72L60.74 7.72Q60.33 8.03 60.33 8.57L60.33 8.57L63.06 8.57ZM68.39 8.33L68.39 8.33L68.39 12.67L66.48 12.67L66.48 6.04L68.39 5.83L68.39 6.45L68.39 6.45Q69.08 5.84 70.03 5.84L70.03 5.84L70.03 5.84Q71.33 5.84 72.02 6.62L72.02 6.62L72.02 6.62Q72.70 7.41 72.70 8.44L72.70 8.44L72.70 12.67L70.79 12.67L70.79 8.91L70.79 8.91Q70.79 8.23 70.44 7.85L70.44 7.85L70.44 7.85Q70.10 7.48 69.41 7.46L69.41 7.46L69.41 7.46Q68.82 7.50 68.39 8.33ZM78.88 2.42L80.79 2.43L80.79 12.67L78.88 12.67L78.88 12.13L78.88 12.13Q78.11 12.67 77.38 12.67L77.38 12.67L77.38 12.67Q75.80 12.67 74.88 11.65L74.88 11.65L74.88 11.65Q73.96 10.62 73.96 9.26L73.96 9.26L73.96 9.26Q73.96 7.89 74.88 6.86L74.88 6.86L74.88 6.86Q75.80 5.84 77.38 5.84L77.38 5.84L77.38 5.84Q78.40 5.91 78.88 6.39L78.88 6.39L78.88 2.42ZM78.88 9.87L78.88 9.87L78.88 8.76L78.88 8.76Q78.74 7.62 77.44 7.42L77.44 7.42L77.44 7.42Q75.80 7.55 75.60 9.12L75.60 9.12L75.60 9.12Q75.67 11.03 77.44 11.10L77.44 11.10L77.44 11.10Q78.74 10.90 78.88 9.87Z"></path></g><!----><!----></svg>